<svg xmlns="http://www.w3.org/2000/svg" viewBox="0 0 200 200" fill="none">
  <!-- Brain/book hybrid icon -->
  <!-- Open book base -->
  <path d="M100 160 L30 140 L30 50 Q65 40 100 60 Q135 40 170 50 L170 140 Z" fill="#1E3A6E" opacity="0.9"/>
  <path d="M100 160 L30 140 L30 50 Q65 40 100 60 Z" fill="#3B82F6"/>
  <path d="M100 160 L170 140 L170 50 Q135 40 100 60 Z" fill="#2563EB"/>
  
  <!-- Page lines left -->
  <line x1="50" y1="70" x2="90" y2="82" stroke="white" stroke-width="2" opacity="0.3" stroke-linecap="round"/>
  <line x1="50" y1="82" x2="90" y2="94" stroke="white" stroke-width="2" opacity="0.3" stroke-linecap="round"/>
  <line x1="50" y1="94" x2="90" y2="106" stroke="white" stroke-width="2" opacity="0.3" stroke-linecap="round"/>
  <line x1="50" y1="106" x2="80" y2="114" stroke="white" stroke-width="2" opacity="0.2" stroke-linecap="round"/>
  
  <!-- Page lines right -->
  <line x1="110" y1="82" x2="150" y2="70" stroke="white" stroke-width="2" opacity="0.3" stroke-linecap="round"/>
  <line x1="110" y1="94" x2="150" y2="82" stroke="white" stroke-width="2" opacity="0.3" stroke-linecap="round"/>
  <line x1="110" y1="106" x2="150" y2="94" stroke="white" stroke-width="2" opacity="0.3" stroke-linecap="round"/>
  <line x1="120" y1="114" x2="150" y2="106" stroke="white" stroke-width="2" opacity="0.2" stroke-linecap="round"/>
  
  <!-- Spine glow -->
  <line x1="100" y1="60" x2="100" y2="160" stroke="#60A5FA" stroke-width="2" opacity="0.6"/>
  
  <!-- Sparkle dots (AI) -->
  <circle cx="45" cy="38" r="4" fill="#60A5FA" opacity="0.8"/>
  <circle cx="155" cy="35" r="3" fill="#60A5FA" opacity="0.6"/>
  <circle cx="100" cy="30" r="5" fill="#3B82F6" opacity="0.9"/>
  
  <!-- Bookmark ribbon -->
  <path d="M140 42 L155 42 L155 72 L147.5 65 L140 72 Z" fill="#F59E0B"/>
</svg>
